<svg width="211" height="277" viewBox="0 0 211 277" fill="none" xmlns="http://www.w3.org/2000/svg">
<rect x="41.205" width="128" height="128" rx="12" fill="white"/>
<g filter="url(#filter0_dd_1_3)">
<rect x="41.205" width="128" height="128" rx="12" fill="white" fill-opacity="0.01" shape-rendering="crispEdges"/>
</g>
<path d="M100.78 79.3L123.055 57.025L116.83 50.725L100.78 66.775L93.13 59.125L86.905 65.425L100.78 79.3ZM105.205 96.55C100.655 96.55 96.4053 95.6979 92.456 93.9937C88.5066 92.2896 85.0712 89.9767 82.1497 87.0553C79.2283 84.1338 76.9155 80.6984 75.2113 76.7491C73.5071 72.7997 72.655 68.55 72.655 64C72.655 59.45 73.5071 55.2003 75.2113 51.2509C76.9155 47.3016 79.2283 43.8662 82.1497 40.9447C85.0712 38.0233 88.5066 35.7104 92.456 34.0063C96.4053 32.3021 100.655 31.45 105.205 31.45C109.755 31.45 114.005 32.3021 117.954 34.0063C121.903 35.7104 125.339 38.0233 128.26 40.9447C131.182 43.8662 133.495 47.3016 135.199 51.2509C136.903 55.2003 137.755 59.45 137.755 64C137.755 68.55 136.903 72.7997 135.199 76.7491C133.495 80.6984 131.182 84.1338 128.26 87.0553C125.339 89.9767 121.903 92.2896 117.954 93.9937C114.005 95.6979 109.755 96.55 105.205 96.55Z" fill="#259DF4"/>
<path d="M29.6075 201V166.078H43.9119C46.5356 166.078 48.7977 166.586 50.698 167.602C52.5983 168.618 54.0633 170.033 55.093 171.848C56.1227 173.662 56.6375 175.763 56.6375 178.149C56.6375 180.548 56.1138 182.642 55.0663 184.43C54.0188 186.219 52.525 187.61 50.585 188.604C48.645 189.598 46.3394 190.095 43.6681 190.095H34.7975V183.562H42.1569C43.4544 183.562 44.5409 183.335 45.4165 182.88C46.2922 182.426 46.9512 181.793 47.3937 180.983C47.8362 180.172 48.0575 179.228 48.0575 178.149C48.0575 177.048 47.8362 176.096 47.3937 175.295C46.9512 174.494 46.2912 173.876 45.4137 173.441C44.5362 173.006 43.4469 172.789 42.1456 172.789H37.8725V201H29.6075ZM67.8529 166.078V201H59.6797V166.078H67.8529ZM79.3916 201.467C77.7234 201.467 76.2373 201.181 74.9333 200.61C73.6292 200.038 72.6084 199.18 71.8709 198.037C71.1334 196.893 70.7647 195.456 70.7647 193.725C70.7647 192.273 71.02 191.048 71.5306 190.051C72.0412 189.054 72.7481 188.245 73.6512 187.622C74.5544 187 75.5926 186.524 76.7661 186.193C77.9395 185.862 79.1891 185.642 80.5147 185.533C82.0059 185.401 83.2051 185.263 84.1123 185.118C85.0195 184.973 85.6817 184.753 86.0989 184.457C86.5161 184.162 86.7247 183.747 86.7247 183.214V183.109C86.7247 182.502 86.5839 181.989 86.3023 181.569C86.0208 181.15 85.6162 180.829 85.0887 180.607C84.5613 180.385 83.9197 180.274 83.1641 180.274C82.4128 180.274 81.7463 180.386 81.1644 180.61C80.5825 180.835 80.1033 181.148 79.7268 181.55C79.3502 181.952 79.0866 182.428 78.936 182.978L71.5147 182.016C71.8659 180.517 72.5466 179.203 73.5566 178.073C74.5666 176.943 75.8867 176.059 77.517 175.423C79.1473 174.787 81.0559 174.469 83.2428 174.469C84.866 174.469 86.3846 174.66 87.7986 175.043C89.2127 175.427 90.4511 175.99 91.5139 176.734C92.5768 177.478 93.4064 178.391 94.003 179.475C94.5996 180.56 94.8979 181.804 94.8979 183.21V201H87.2047V197.331H86.9947C86.5197 198.225 85.9214 198.979 85.1998 199.591C84.4783 200.204 83.6356 200.67 82.6719 200.989C81.7081 201.307 80.6147 201.467 79.3916 201.467ZM81.8816 196.048C82.8028 196.048 83.6333 195.862 84.373 195.49C85.1127 195.118 85.7014 194.605 86.1392 193.949C86.577 193.293 86.7959 192.534 86.7959 191.674V189.163C86.5647 189.283 86.2728 189.398 85.9203 189.509C85.5678 189.62 85.1808 189.72 84.7592 189.809C84.3377 189.898 83.9158 189.977 83.4936 190.045C83.0714 190.113 82.6691 190.177 82.2866 190.236C81.4847 190.349 80.8027 190.54 80.2405 190.809C79.6783 191.078 79.2503 191.422 78.9566 191.842C78.6629 192.262 78.516 192.764 78.516 193.348C78.516 193.934 78.6613 194.427 78.9519 194.829C79.2425 195.23 79.6397 195.534 80.1435 195.74C80.6472 195.945 81.2266 196.048 81.8816 196.048ZM107.289 186.045V201H99.1156V174.797H106.804L106.952 181.416H106.598C107.24 179.326 108.246 177.646 109.616 176.375C110.986 175.104 112.823 174.469 115.128 174.469C116.965 174.469 118.562 174.877 119.92 175.692C121.278 176.508 122.331 177.655 123.079 179.134C123.827 180.613 124.201 182.343 124.201 184.324V201H116.028V185.904C116.028 184.435 115.652 183.281 114.9 182.444C114.148 181.606 113.102 181.187 111.761 181.187C110.879 181.187 110.101 181.38 109.428 181.767C108.754 182.153 108.229 182.707 107.853 183.427C107.477 184.147 107.289 185.02 107.289 186.045ZM136.581 186.045V201H128.408V174.797H136.096L136.244 181.416H135.89C136.533 179.326 137.539 177.646 138.908 176.375C140.278 175.104 142.115 174.469 144.42 174.469C146.257 174.469 147.855 174.877 149.212 175.692C150.57 176.508 151.623 177.655 152.371 179.134C153.119 180.613 153.493 182.343 153.493 184.324V201H145.32V185.904C145.32 184.435 144.944 183.281 144.193 182.444C143.441 181.606 142.394 181.187 141.053 181.187C140.171 181.187 139.393 181.38 138.72 181.767C138.046 182.153 137.522 182.707 137.145 183.427C136.769 184.147 136.581 185.02 136.581 186.045ZM169.86 201.491C167.129 201.491 164.777 200.926 162.804 199.795C160.831 198.664 159.317 197.086 158.264 195.06C157.21 193.035 156.684 190.679 156.684 187.991C156.684 185.292 157.21 182.93 158.264 180.902C159.317 178.875 160.831 177.296 162.804 176.165C164.777 175.034 167.129 174.469 169.86 174.469C172.595 174.469 174.944 175.034 176.908 176.165C178.871 177.296 180.379 178.875 181.432 180.902C182.486 182.93 183.013 185.292 183.013 187.991C183.013 190.679 182.486 193.035 181.432 195.06C180.379 197.086 178.871 198.664 176.908 199.795C174.944 200.926 172.595 201.491 169.86 201.491ZM169.86 195.242C170.902 195.242 171.782 194.937 172.501 194.328C173.22 193.718 173.764 192.865 174.132 191.769C174.501 190.672 174.686 189.401 174.686 187.956C174.686 186.494 174.501 185.223 174.132 184.14C173.764 183.058 173.22 182.217 172.501 181.617C171.782 181.018 170.902 180.718 169.86 180.718C168.811 180.718 167.926 181.018 167.204 181.617C166.483 182.217 165.938 183.057 165.569 184.137C165.201 185.218 165.016 186.491 165.016 187.956C165.016 189.401 165.201 190.672 165.569 191.769C165.938 192.865 166.483 193.718 167.204 194.328C167.926 194.937 168.811 195.242 169.86 195.242Z" fill="#0F172A"/>
<rect x="57.205" y="232" width="96" height="1" fill="#CBD5E1"/>
<path d="M1.44915 270V256.904H6.14039C7.15148 256.904 7.99295 257.091 8.66478 257.466C9.33662 257.84 9.84011 258.347 10.1753 258.986C10.5104 259.626 10.678 260.349 10.678 261.156C10.678 261.964 10.5096 262.688 10.1729 263.33C9.83616 263.972 9.33123 264.48 8.6581 264.854C7.98498 265.229 7.14076 265.416 6.12545 265.416H2.91621V263.716H5.93086C6.57375 263.716 7.09506 263.605 7.49479 263.384C7.89452 263.162 8.1867 262.858 8.37133 262.47C8.55596 262.083 8.64827 261.645 8.64827 261.156C8.64827 260.664 8.55596 260.228 8.37133 259.846C8.1867 259.464 7.89332 259.164 7.49119 258.947C7.08906 258.729 6.56415 258.62 5.91645 258.62H3.45761V270H1.44915ZM15.2321 256.904V270H13.2989V256.904H15.2321ZM21.0335 270.216C20.4113 270.216 19.8489 270.101 19.3463 269.871C18.8437 269.642 18.4456 269.304 18.1521 268.858C17.8585 268.412 17.7117 267.866 17.7117 267.221C17.7117 266.663 17.8194 266.205 18.0346 265.848C18.2499 265.491 18.5396 265.208 18.9038 264.999C19.2679 264.789 19.6743 264.632 20.1228 264.526C20.5714 264.421 21.0289 264.341 21.4954 264.287C22.075 264.217 22.546 264.16 22.9083 264.116C23.2705 264.071 23.5384 263.998 23.7118 263.896C23.8853 263.794 23.972 263.627 23.972 263.396V263.347C23.972 262.98 23.9014 262.669 23.7601 262.415C23.6188 262.161 23.4085 261.966 23.1291 261.83C22.8497 261.694 22.5021 261.626 22.0862 261.626C21.6618 261.626 21.2962 261.692 20.9897 261.824C20.6831 261.955 20.4337 262.123 20.2416 262.326C20.0494 262.53 19.9063 262.743 19.8125 262.966L17.993 262.499C18.2164 261.909 18.5363 261.436 18.9524 261.078C19.3685 260.721 19.8457 260.46 20.384 260.297C20.9223 260.133 21.4809 260.051 22.0597 260.051C22.4542 260.051 22.8742 260.098 23.3195 260.192C23.7648 260.287 24.1833 260.456 24.5751 260.701C24.9668 260.946 25.2865 261.292 25.534 261.74C25.7815 262.187 25.9052 262.766 25.9052 263.477V270H24.0348V268.655H23.9356C23.8085 268.908 23.6189 269.155 23.367 269.395C23.1152 269.635 22.7966 269.832 22.4114 269.986C22.0262 270.139 21.5669 270.216 21.0335 270.216ZM21.4625 268.668C21.9915 268.668 22.4431 268.564 22.8174 268.357C23.1916 268.15 23.4787 267.877 23.6785 267.539C23.8784 267.202 23.9783 266.842 23.9783 266.462V265.199C23.9086 265.268 23.7754 265.331 23.5786 265.388C23.3818 265.444 23.1585 265.495 22.9087 265.538C22.6588 265.582 22.4157 265.619 22.1792 265.65C21.9427 265.68 21.7494 265.705 21.5991 265.724C21.2372 265.77 20.905 265.848 20.6024 265.959C20.2999 266.07 20.0595 266.228 19.8814 266.433C19.7033 266.638 19.6142 266.91 19.6142 267.248C19.6142 267.559 19.6942 267.82 19.8541 268.03C20.0141 268.24 20.2327 268.399 20.51 268.507C20.7872 268.614 21.1048 268.668 21.4625 268.668ZM30.889 264.178V270H28.9557V260.174H30.799L30.8188 262.579H30.6197C30.9048 261.701 31.3195 261.06 31.8637 260.656C32.4079 260.253 33.0663 260.051 33.8389 260.051C34.5074 260.051 35.0919 260.191 35.5926 260.471C36.0933 260.752 36.4831 261.167 36.7619 261.716C37.0408 262.265 37.1802 262.946 37.1802 263.757V270H35.247V263.998C35.247 263.29 35.0626 262.736 34.694 262.335C34.3254 261.934 33.82 261.734 33.1777 261.734C32.7416 261.734 32.3506 261.829 32.0046 262.02C31.6586 262.211 31.3861 262.488 31.1873 262.852C30.9884 263.216 30.889 263.657 30.889 264.178ZM50.0282 270.216C49.0501 270.216 48.2001 270.061 47.4783 269.75C46.7566 269.44 46.1926 268.996 45.7863 268.421C45.38 267.845 45.1547 267.158 45.1104 266.36H47.1233C47.1659 266.836 47.321 267.229 47.5886 267.54C47.8562 267.852 48.2031 268.084 48.6292 268.236C49.0553 268.389 49.5185 268.465 50.0187 268.465C50.5726 268.465 51.0661 268.378 51.4992 268.202C51.9324 268.027 52.2738 267.78 52.5234 267.462C52.7729 267.143 52.8977 266.775 52.8977 266.356C52.8977 265.974 52.7891 265.662 52.5718 265.419C52.3545 265.176 52.0591 264.973 51.6855 264.812C51.3119 264.651 50.8891 264.508 50.4172 264.384L48.8827 263.966C47.81 263.677 46.9736 263.25 46.3735 262.687C45.7733 262.123 45.4732 261.394 45.4732 260.498C45.4732 259.743 45.6772 259.082 46.0851 258.516C46.493 257.949 47.0471 257.51 47.7474 257.197C48.4476 256.885 49.237 256.729 50.1156 256.729C51.0128 256.729 51.8022 256.885 52.4838 257.199C53.1654 257.513 53.7013 257.942 54.0914 258.488C54.4815 259.033 54.6867 259.654 54.707 260.351H52.7527C52.6849 259.751 52.4069 259.286 51.9185 258.957C51.4301 258.629 50.8147 258.465 50.0723 258.465C49.5457 258.465 49.0871 258.548 48.6966 258.714C48.3061 258.881 48.0047 259.109 47.7925 259.398C47.5802 259.688 47.4741 260.018 47.4741 260.389C47.4741 260.801 47.6014 261.135 47.8561 261.391C48.1107 261.647 48.4213 261.849 48.7877 261.997C49.1542 262.145 49.504 262.263 49.8373 262.351L51.1042 262.687C51.5222 262.791 51.952 262.934 52.3937 263.113C52.8354 263.293 53.2446 263.525 53.6213 263.809C53.998 264.093 54.3024 264.445 54.5345 264.865C54.7667 265.284 54.8828 265.789 54.8828 266.378C54.8828 267.119 54.692 267.779 54.3104 268.358C53.9289 268.937 53.3762 269.391 52.6525 269.721C51.9287 270.051 51.054 270.216 50.0282 270.216ZM57.5606 270V260.174H59.4025L59.4508 262.453H59.3056C59.4446 261.896 59.6604 261.438 59.9531 261.078C60.2458 260.719 60.5885 260.451 60.9813 260.274C61.3741 260.096 61.7841 260.008 62.2113 260.008C62.9229 260.008 63.4987 260.229 63.9384 260.671C64.3781 261.114 64.6751 261.73 64.8293 262.518H64.5868C64.7134 261.98 64.9358 261.524 65.2537 261.15C65.5716 260.776 65.9533 260.492 66.3989 260.298C66.8444 260.104 67.3248 260.008 67.8399 260.008C68.4189 260.008 68.9432 260.133 69.413 260.385C69.8828 260.636 70.2558 261.01 70.532 261.508C70.8082 262.005 70.9464 262.627 70.9464 263.373V270H69.0131V263.57C69.0131 262.912 68.8303 262.436 68.4645 262.142C68.0988 261.849 67.667 261.702 67.1692 261.702C66.7656 261.702 66.4168 261.788 66.1227 261.959C65.8287 262.131 65.6024 262.367 65.4438 262.667C65.2852 262.968 65.2059 263.315 65.2059 263.707V270H63.3011V263.441C63.3011 262.917 63.1327 262.496 62.7957 262.179C62.4588 261.861 62.0295 261.702 61.5076 261.702C61.151 261.702 60.8188 261.785 60.5108 261.952C60.2029 262.119 59.9565 262.364 59.7714 262.689C59.5864 263.013 59.4939 263.415 59.4939 263.895V270H57.5606ZM76.7473 270.216C76.1252 270.216 75.5628 270.101 75.0602 269.871C74.5576 269.642 74.1595 269.304 73.8659 268.858C73.5724 268.412 73.4256 267.866 73.4256 267.221C73.4256 266.663 73.5332 266.205 73.7485 265.848C73.9638 265.491 74.2535 265.208 74.6177 264.999C74.9818 264.789 75.3882 264.632 75.8367 264.526C76.2852 264.421 76.7428 264.341 77.2093 264.287C77.7889 264.217 78.2598 264.16 78.6221 264.116C78.9844 264.071 79.2523 263.998 79.4257 263.896C79.5991 263.794 79.6859 263.627 79.6859 263.396V263.347C79.6859 262.98 79.6152 262.669 79.474 262.415C79.3327 262.161 79.1224 261.966 78.843 261.83C78.5636 261.694 78.216 261.626 77.8001 261.626C77.3756 261.626 77.0101 261.692 76.7036 261.824C76.397 261.955 76.1476 262.123 75.9554 262.326C75.7632 262.53 75.6202 262.743 75.5263 262.966L73.7068 262.499C73.9303 261.909 74.2501 261.436 74.6663 261.078C75.0824 260.721 75.5596 260.46 76.0979 260.297C76.6362 260.133 77.1947 260.051 77.7735 260.051C78.1681 260.051 78.588 260.098 79.0334 260.192C79.4787 260.287 79.8972 260.456 80.289 260.701C80.6807 260.946 81.0003 261.292 81.2478 261.74C81.4953 262.187 81.6191 262.766 81.6191 263.477V270H79.7486V268.655H79.6495C79.5223 268.908 79.3328 269.155 79.0809 269.395C78.829 269.635 78.5105 269.832 78.1253 269.986C77.7401 270.139 77.2808 270.216 76.7473 270.216ZM77.1764 268.668C77.7054 268.668 78.157 268.564 78.5312 268.357C78.9055 268.15 79.1925 267.877 79.3924 267.539C79.5923 267.202 79.6922 266.842 79.6922 266.462V265.199C79.6225 265.268 79.4892 265.331 79.2925 265.388C79.0957 265.444 78.8724 265.495 78.6226 265.538C78.3727 265.582 78.1296 265.619 77.8931 265.65C77.6566 265.68 77.4632 265.705 77.313 265.724C76.9511 265.77 76.6189 265.848 76.3163 265.959C76.0137 266.07 75.7734 266.228 75.5952 266.433C75.4171 266.638 75.3281 266.91 75.3281 267.248C75.3281 267.559 75.408 267.82 75.568 268.03C75.728 268.24 75.9466 268.399 76.2238 268.507C76.5011 268.614 76.8186 268.668 77.1764 268.668ZM84.6696 270V260.174H86.5406V261.752H86.6461C86.8267 261.218 87.143 260.799 87.5951 260.494C88.0472 260.189 88.5605 260.036 89.1348 260.036C89.2583 260.036 89.3998 260.041 89.5594 260.05C89.7189 260.059 89.8498 260.07 89.952 260.083V261.929C89.8819 261.908 89.7471 261.885 89.5474 261.861C89.3478 261.837 89.1452 261.825 88.9395 261.825C88.4929 261.825 88.0923 261.92 87.7376 262.108C87.3829 262.297 87.1051 262.557 86.9042 262.889C86.7033 263.22 86.6028 263.602 86.6028 264.034V270H84.6696ZM96.5939 260.174V261.746H91.2639V260.174H96.5939ZM92.6993 257.836H94.6325V267.342C94.6325 267.739 94.7153 268.03 94.8808 268.214C95.0463 268.398 95.3208 268.491 95.7041 268.491C95.8048 268.491 95.9369 268.479 96.1007 268.455C96.2644 268.431 96.4049 268.407 96.5222 268.384L96.8648 269.933C96.6575 270.001 96.4364 270.051 96.2015 270.081C95.9666 270.112 95.7366 270.128 95.5114 270.128C94.6165 270.128 93.9241 269.899 93.4342 269.44C92.9443 268.982 92.6993 268.336 92.6993 267.501V257.836ZM100.394 270.132C100.033 270.132 99.7257 270.006 99.4736 269.755C99.2216 269.504 99.0956 269.198 99.0956 268.838C99.0956 268.477 99.2216 268.171 99.4736 267.92C99.7257 267.669 100.033 267.543 100.394 267.543C100.756 267.543 101.063 267.669 101.315 267.92C101.567 268.171 101.693 268.477 101.693 268.838C101.693 269.198 101.567 269.504 101.315 269.755C101.063 270.006 100.756 270.132 100.394 270.132ZM110.085 270V256.904H112.094V268.273H118.019V270H110.085ZM120.564 270V260.174H122.497V270H120.564ZM121.536 258.675C121.205 258.675 120.92 258.562 120.681 258.337C120.442 258.112 120.322 257.841 120.322 257.526C120.322 257.205 120.442 256.933 120.681 256.71C120.92 256.488 121.205 256.377 121.536 256.377C121.872 256.377 122.16 256.488 122.399 256.71C122.638 256.932 122.758 257.204 122.758 257.526C122.758 257.842 122.638 258.112 122.399 258.337C122.16 258.562 121.872 258.675 121.536 258.675ZM128.364 270L124.657 260.174H126.745L128.689 265.759C128.906 266.373 129.091 266.989 129.244 267.606C129.397 268.224 129.556 268.836 129.722 269.443H129.147C129.311 268.836 129.47 268.224 129.623 267.607C129.775 266.99 129.957 266.374 130.167 265.759L132.106 260.174H134.183L130.473 270H128.364ZM140.237 270.205C139.269 270.205 138.435 269.996 137.734 269.577C137.033 269.159 136.493 268.572 136.116 267.816C135.738 267.06 135.549 266.174 135.549 265.157C135.549 264.148 135.734 263.26 136.106 262.494C136.477 261.728 137.002 261.129 137.681 260.698C138.361 260.267 139.157 260.051 140.069 260.051C140.631 260.051 141.174 260.142 141.697 260.326C142.221 260.509 142.691 260.798 143.106 261.191C143.522 261.584 143.851 262.094 144.094 262.72C144.337 263.346 144.459 264.102 144.459 264.988V265.674H136.624V264.23H143.462L142.559 264.707C142.559 264.106 142.466 263.576 142.279 263.116C142.092 262.657 141.815 262.297 141.447 262.038C141.079 261.779 140.622 261.65 140.076 261.65C139.529 261.65 139.062 261.782 138.675 262.046C138.288 262.309 137.993 262.657 137.789 263.088C137.586 263.519 137.484 263.989 137.484 264.498V265.479C137.484 266.152 137.599 266.723 137.831 267.189C138.062 267.656 138.387 268.009 138.805 268.247C139.222 268.486 139.706 268.605 140.256 268.605C140.617 268.605 140.944 268.554 141.239 268.45C141.534 268.347 141.788 268.191 142 267.984C142.213 267.776 142.376 267.519 142.49 267.212L144.304 267.64C144.149 268.15 143.886 268.597 143.513 268.982C143.14 269.367 142.677 269.667 142.123 269.882C141.569 270.097 140.94 270.205 140.237 270.205ZM152.422 270V256.904H157.25C158.179 256.904 158.948 257.057 159.558 257.363C160.168 257.668 160.623 258.08 160.923 258.598C161.223 259.116 161.373 259.697 161.373 260.34C161.373 260.887 161.272 261.347 161.071 261.719C160.87 262.091 160.602 262.39 160.267 262.616C159.932 262.842 159.563 263.007 159.159 263.111V263.237C159.597 263.26 160.024 263.4 160.44 263.658C160.857 263.917 161.202 264.282 161.474 264.754C161.747 265.226 161.883 265.798 161.883 266.471C161.883 267.138 161.726 267.738 161.412 268.271C161.098 268.804 160.615 269.226 159.963 269.535C159.311 269.845 158.477 270 157.461 270H152.422ZM154.431 268.28H157.254C158.196 268.28 158.871 268.098 159.279 267.735C159.686 267.372 159.89 266.919 159.89 266.375C159.89 265.958 159.786 265.58 159.578 265.238C159.37 264.897 159.076 264.625 158.695 264.423C158.314 264.22 157.861 264.119 157.335 264.119H154.431V268.28ZM154.431 262.57H157.057C157.498 262.57 157.895 262.486 158.25 262.317C158.605 262.148 158.886 261.909 159.093 261.6C159.3 261.29 159.403 260.926 159.403 260.508C159.403 259.97 159.215 259.521 158.839 259.16C158.462 258.799 157.886 258.618 157.11 258.618H154.431V262.57ZM168.78 270.205C167.813 270.205 166.979 269.996 166.277 269.577C165.576 269.159 165.037 268.572 164.659 267.816C164.281 267.06 164.092 266.174 164.092 265.157C164.092 264.148 164.278 263.26 164.649 262.494C165.02 261.728 165.545 261.129 166.225 260.698C166.904 260.267 167.7 260.051 168.613 260.051C169.174 260.051 169.717 260.142 170.241 260.326C170.764 260.509 171.234 260.798 171.65 261.191C172.065 261.584 172.395 262.094 172.638 262.72C172.881 263.346 173.002 264.102 173.002 264.988V265.674H165.168V264.23H172.006L171.103 264.707C171.103 264.106 171.009 263.576 170.823 263.116C170.636 262.657 170.358 262.297 169.99 262.038C169.623 261.779 169.165 261.65 168.619 261.65C168.073 261.65 167.606 261.782 167.219 262.046C166.832 262.309 166.536 262.657 166.333 263.088C166.129 263.519 166.027 263.989 166.027 264.498V265.479C166.027 266.152 166.143 266.723 166.374 267.189C166.606 267.656 166.93 268.009 167.348 268.247C167.766 268.486 168.25 268.605 168.8 268.605C169.16 268.605 169.488 268.554 169.782 268.45C170.077 268.347 170.331 268.191 170.544 267.984C170.756 267.776 170.92 267.519 171.033 267.212L172.847 267.64C172.693 268.15 172.429 268.597 172.056 268.982C171.683 269.367 171.22 269.667 170.666 269.882C170.112 270.097 169.483 270.205 168.78 270.205ZM179.774 260.174V261.746H174.444V260.174H179.774ZM175.879 257.836H177.812V267.342C177.812 267.739 177.895 268.03 178.061 268.214C178.226 268.398 178.5 268.491 178.884 268.491C178.984 268.491 179.117 268.479 179.28 268.455C179.444 268.431 179.585 268.407 179.702 268.384L180.044 269.933C179.837 270.001 179.616 270.051 179.381 270.081C179.146 270.112 178.916 270.128 178.691 270.128C177.796 270.128 177.104 269.899 176.614 269.44C176.124 268.982 175.879 268.336 175.879 267.501V257.836ZM186.288 260.174V261.746H180.958V260.174H186.288ZM182.393 257.836H184.327V267.342C184.327 267.739 184.409 268.03 184.575 268.214C184.74 268.398 185.015 268.491 185.398 268.491C185.499 268.491 185.631 268.479 185.795 268.455C185.959 268.431 186.099 268.407 186.216 268.384L186.559 269.933C186.352 270.001 186.131 270.051 185.896 270.081C185.661 270.112 185.431 270.128 185.206 270.128C184.311 270.128 183.618 269.899 183.128 269.44C182.638 268.982 182.393 268.336 182.393 267.501V257.836ZM192.718 270.205C191.751 270.205 190.916 269.996 190.215 269.577C189.514 269.159 188.975 268.572 188.597 267.816C188.219 267.06 188.03 266.174 188.03 265.157C188.03 264.148 188.216 263.26 188.587 262.494C188.958 261.728 189.483 261.129 190.163 260.698C190.842 260.267 191.638 260.051 192.551 260.051C193.112 260.051 193.655 260.142 194.179 260.326C194.702 260.509 195.172 260.798 195.588 261.191C196.003 261.584 196.333 262.094 196.576 262.72C196.819 263.346 196.94 264.102 196.94 264.988V265.674H189.105V264.23H195.944L195.041 264.707C195.041 264.106 194.947 263.576 194.76 263.116C194.574 262.657 194.296 262.297 193.928 262.038C193.561 261.779 193.103 261.65 192.557 261.65C192.01 261.65 191.544 261.782 191.157 262.046C190.77 262.309 190.474 262.657 190.271 263.088C190.067 263.519 189.965 263.989 189.965 264.498V265.479C189.965 266.152 190.081 266.723 190.312 267.189C190.543 267.656 190.868 268.009 191.286 268.247C191.703 268.486 192.187 268.605 192.738 268.605C193.098 268.605 193.426 268.554 193.72 268.45C194.015 268.347 194.269 268.191 194.482 267.984C194.694 267.776 194.857 267.519 194.971 267.212L196.785 267.64C196.631 268.15 196.367 268.597 195.994 268.982C195.621 269.367 195.158 269.667 194.604 269.882C194.05 270.097 193.421 270.205 192.718 270.205ZM199.506 270V260.174H201.377V261.752H201.482C201.663 261.218 201.979 260.799 202.431 260.494C202.883 260.189 203.397 260.036 203.971 260.036C204.094 260.036 204.236 260.041 204.396 260.05C204.555 260.059 204.686 260.07 204.788 260.083V261.929C204.718 261.908 204.583 261.885 204.384 261.861C204.184 261.837 203.981 261.825 203.776 261.825C203.329 261.825 202.928 261.92 202.574 262.108C202.219 262.297 201.941 262.557 201.74 262.889C201.539 263.22 201.439 263.602 201.439 264.034V270H199.506ZM207.222 270.132C206.86 270.132 206.553 270.006 206.301 269.755C206.049 269.504 205.923 269.198 205.923 268.838C205.923 268.477 206.049 268.171 206.301 267.92C206.553 267.669 206.86 267.543 207.222 267.543C207.584 267.543 207.891 267.669 208.143 267.92C208.395 268.171 208.521 268.477 208.521 268.838C208.521 269.198 208.395 269.504 208.143 269.755C207.891 270.006 207.584 270.132 207.222 270.132Z" fill="#64748B"/>
<defs>
<filter id="filter0_dd_1_3" x="21.205" y="0" width="168" height="168" filterUnits="userSpaceOnUse" color-interpolation-filters="sRGB">
<feFlood flood-opacity="0" result="BackgroundImageFix"/>
<feColorMatrix in="SourceAlpha" type="matrix" values="0 0 0 0 0 0 0 0 0 0 0 0 0 0 0 0 0 0 127 0" result="hardAlpha"/>
<feMorphology radius="6" operator="erode" in="SourceAlpha" result="effect1_dropShadow_1_3"/>
<feOffset dy="8"/>
<feGaussianBlur stdDeviation="5"/>
<feComposite in2="hardAlpha" operator="out"/>
<feColorMatrix type="matrix" values="0 0 0 0 0.145098 0 0 0 0 0.615686 0 0 0 0 0.956863 0 0 0 0.1 0"/>
<feBlend mode="normal" in2="BackgroundImageFix" result="effect1_dropShadow_1_3"/>
<feColorMatrix in="SourceAlpha" type="matrix" values="0 0 0 0 0 0 0 0 0 0 0 0 0 0 0 0 0 0 127 0" result="hardAlpha"/>
<feMorphology radius="5" operator="erode" in="SourceAlpha" result="effect2_dropShadow_1_3"/>
<feOffset dy="20"/>
<feGaussianBlur stdDeviation="12.5"/>
<feComposite in2="hardAlpha" operator="out"/>
<feColorMatrix type="matrix" values="0 0 0 0 0.145098 0 0 0 0 0.615686 0 0 0 0 0.956863 0 0 0 0.1 0"/>
<feBlend mode="normal" in2="effect1_dropShadow_1_3" result="effect2_dropShadow_1_3"/>
<feBlend mode="normal" in="SourceGraphic" in2="effect2_dropShadow_1_3" result="shape"/>
</filter>
</defs>
</svg>
